<?xml version="1.0" encoding="UTF-8" standalone="no"?>
<!-- license: cc0, src: https://creazilla.com/media/clipart/3173073/radioactive-->
<svg
   version="1.1"
   id="Layer_1"
   x="0px"
   y="0px"
   viewBox="0 0 245.35329 229.51969"
   xml:space="preserve"
   width="245.35329"
   height="229.51968"
   xmlns="http://www.w3.org/2000/svg">
<g
   id="g13"
   transform="translate(-82.66332,-96.80533)"
   style="fill:#ff6600"><path
     class="st0"
     d="m 228.2784,203.44537 c 0,13.39767 -10.96173,24.3594 -24.3594,24.3594 -13.39767,0 -24.3594,-10.96173 -24.3594,-24.3594 0,-13.39767 10.96173,-24.3594 24.3594,-24.3594 13.39767,0 24.3594,10.96173 24.3594,24.3594"
     id="path1"
     style="stroke-width:1.3533;fill:#ff6600" /><path
     class="st0"
     d="m 157.63614,203.44537 c 0,-17.72823 9.60843,-33.15585 23.81808,-41.41098 L 143.83248,97.21132 c -36.5391,21.24681 -61.16916,60.76317 -61.16916,106.09872 h 74.97282"
     id="path2"
     style="stroke-width:1.3533;fill:#ff6600" /><path
     class="st0"
     d="m 228.54906,245.39767 c -6.90183,3.78924 -14.75097,5.95452 -23.14143,5.95452 -8.93178,0 -17.32224,-2.43594 -24.49473,-6.7665 l -37.35108,64.9584 c 18.13422,10.69107 39.38103,16.78092 61.84581,16.78092 22.60011,0 43.71159,-6.08985 61.84581,-16.78092 l -38.70438,-64.14642"
     id="path3"
     style="stroke-width:1.3533;fill:#ff6600" /><path
     class="st0"
     d="m 228.68439,161.76373 c 14.61564,8.1198 24.49473,23.81808 24.49473,41.68164 h 74.83749 c 0,-45.60621 -24.90072,-85.52856 -61.98114,-106.64004 l -37.35108,64.9584"
     id="path4"
     style="stroke-width:1.3533;fill:#ff6600" /><path
     class="st0"
     d="m 230.985,204.12202 c 0,14.07432 -11.50305,25.57737 -25.57737,25.57737 -14.07432,0 -25.57737,-11.50305 -25.57737,-25.57737 0,-14.07432 11.50305,-25.57737 25.57737,-25.57737 14.07432,0 25.57737,11.50305 25.57737,25.57737"
     id="path5"
     style="stroke-width:1.3533;fill:#ff6600" /></g>
</svg>
